<?xml version="1.0" encoding="utf-8"?>
<!-- Generator: Adobe Illustrator 18.1.1, SVG Export Plug-In . SVG Version: 6.00 Build 0)  -->
<svg version="1.1" xmlns="http://www.w3.org/2000/svg" xmlns:xlink="http://www.w3.org/1999/xlink" x="0px" y="0px"
	 viewBox="0 0 25 25" enable-background="new 0 0 25 25" xml:space="preserve">
<g id="contorno_x5F_verde">
	<path fill="#FFFFFF" stroke="#2BB673" stroke-width="0.2" stroke-miterlimit="10" d="M12,18.3h-1.3c-2.8,0-5.1-2.3-5.1-5.1v0
		c0-2.8,2.3-5.1,5.1-5.1H12c2.8,0,5.1,2.3,5.1,5.1v0C17.1,15.9,14.8,18.3,12,18.3z"/>
</g>
<g id="Omino_x5F_verde">
	<path fill="#FFFFFF" stroke="#2BB673" stroke-width="0.2" stroke-miterlimit="10" d="M11.3,15.7L11.3,15.7c-0.7,0-1.4-0.6-1.4-1.4
		v-0.2c0-0.7,0.6-1.4,1.4-1.4h0c0.7,0,1.4,0.6,1.4,1.4v0.2C12.7,15.1,12.1,15.7,11.3,15.7z"/>
	<ellipse fill="#FFFFFF" stroke="#2BB673" stroke-width="0.2" stroke-miterlimit="10" cx="11.3" cy="11.9" rx="1" ry="0.9"/>
	<path fill="#FFFFFF" stroke="#2BB673" stroke-width="0.2" stroke-miterlimit="10" d="M11.3,15.7L11.3,15.7c-0.7,0-1.4-0.6-1.4-1.4
		v-0.2c0-0.7,0.6-1.4,1.4-1.4h0c0.7,0,1.4,0.6,1.4,1.4v0.2C12.7,15.1,12.1,15.7,11.3,15.7z"/>
	<ellipse fill="#FFFFFF" stroke="#2BB673" stroke-width="0.2" stroke-miterlimit="10" cx="11.3" cy="11.9" rx="1" ry="0.9"/>
	<path fill="#FFFFFF" stroke="#2BB673" stroke-width="0.2" stroke-miterlimit="10" d="M11.3,15.7L11.3,15.7c-0.7,0-1.4-0.6-1.4-1.4
		v-0.2c0-0.7,0.6-1.4,1.4-1.4h0c0.7,0,1.4,0.6,1.4,1.4v0.2C12.7,15.1,12.1,15.7,11.3,15.7z"/>
	<ellipse fill="#FFFFFF" stroke="#2BB673" stroke-width="0.2" stroke-miterlimit="10" cx="11.3" cy="11.9" rx="1" ry="0.9"/>
</g>
</svg>
