<?xml version="1.0" encoding="utf-8"?>
<!-- Generator: Adobe Illustrator 18.1.1, SVG Export Plug-In . SVG Version: 6.00 Build 0)  -->
<svg version="1.1" id="Layer_1" xmlns="http://www.w3.org/2000/svg" xmlns:xlink="http://www.w3.org/1999/xlink" x="0px" y="0px"
	 viewBox="0 0 25 25" enable-background="new 0 0 25 25" xml:space="preserve">
<path fill="#FFFFFF" stroke="#2BB673" stroke-width="0.2" stroke-miterlimit="10" d="M13.2,17.6h-1.3c-2.8,0-5.1-2.3-5.1-5.1v0
	c0-2.8,2.3-5.1,5.1-5.1h1.3c2.8,0,5.1,2.3,5.1,5.1v0C18.3,15.3,16,17.6,13.2,17.6z"/>
<path fill="#FFFFFF" stroke="#2BB673" stroke-width="0.2" stroke-miterlimit="10" d="M12.5,14.9L12.5,14.9c-0.7,0-1.4-0.6-1.4-1.4
	v-0.2c0-0.7,0.6-1.4,1.4-1.4h0c0.7,0,1.4,0.6,1.4,1.4v0.2C13.9,14.3,13.2,14.9,12.5,14.9z"/>
<ellipse fill="#FFFFFF" stroke="#2BB673" stroke-width="0.2" stroke-miterlimit="10" cx="12.5" cy="11.1" rx="1" ry="0.9"/>
</svg>
